<?xml version="1.0" standalone="no"?>
<!DOCTYPE svg PUBLIC "-//W3C//DTD SVG 20010904//EN"
 "http://www.w3.org/TR/2001/REC-SVG-20010904/DTD/svg10.dtd">
<svg version="1.0" xmlns="http://www.w3.org/2000/svg"
 width="747.000000pt" height="390.000000pt" viewBox="0 0 747.000000 390.000000"
 preserveAspectRatio="xMidYMid meet">

<g transform="translate(0.000000,390.000000) scale(0.100000,-0.100000)"
fill="#000000" stroke="none">
<path d="M2170 3410 c-398 -85 -711 -383 -818 -779 -23 -85 -26 -115 -26 -266
0 -152 3 -180 27 -267 49 -185 133 -332 269 -474 94 -97 194 -169 321 -229
386 -183 858 -107 1172 187 58 54 336 384 975 1157 220 267 296 346 401 421
203 143 387 196 645 188 156 -6 260 -31 389 -93 158 -77 312 -208 404 -344 59
-87 125 -229 151 -326 33 -121 38 -330 12 -455 -105 -506 -560 -857 -1072
-827 -181 11 -343 62 -472 147 -35 23 -130 110 -211 193 -147 150 -162 158
-85 44 175 -258 450 -409 774 -424 150 -7 255 7 394 53 175 58 306 141 436
276 196 203 294 450 294 738 0 245 -70 454 -217 647 -358 471 -1048 559 -1508
192 -101 -80 -164 -152 -733 -841 -318 -383 -579 -689 -614 -721 -158 -136
-312 -213 -508 -253 -124 -25 -333 -16 -454 20 -193 58 -334 144 -474 290
-391 412 -371 1055 44 1446 129 121 277 204 449 250 123 34 338 39 471 11 217
-45 325 -110 538 -326 147 -148 157 -152 67 -25 -143 204 -351 340 -596 391
-120 25 -327 25 -445 -1z"/>
<path d="M2310 2949 c-69 -11 -171 -49 -164 -60 3 -5 -1 -6 -8 -4 -18 7 -111
-52 -103 -65 4 -6 3 -10 -2 -9 -20 4 -27 -2 -13 -12 13 -9 12 -10 -3 -5 -20 6
-62 -32 -103 -96 -26 -41 -30 -53 -12 -42 7 4 8 3 4 -5 -4 -6 -11 -9 -16 -6
-9 6 -35 -47 -58 -118 -23 -73 -22 -253 2 -332 43 -148 165 -292 302 -360 43
-21 92 -39 110 -39 18 -1 30 -4 28 -7 -13 -21 165 -24 258 -4 113 24 280 118
262 147 -5 7 -2 8 5 3 18 -10 63 34 56 56 -3 10 -1 20 4 24 7 4 9 -1 5 -12
-10 -32 43 37 71 92 57 113 77 262 52 381 -19 88 -56 176 -70 167 -6 -3 -7 -1
-3 6 4 6 -3 26 -15 44 -44 64 -174 187 -143 135 5 -9 2 -9 -9 1 -20 16 -22 25
-4 16 6 -4 3 1 -8 10 -38 32 -150 78 -225 91 -85 15 -121 16 -200 3z m309 -48
c7 -5 9 -11 5 -14 -5 -3 -15 1 -22 9 -14 16 -5 18 17 5z m-379 -15 c0 -2 -7
-7 -16 -10 -8 -3 -12 -2 -9 4 6 10 25 14 25 6z m539 -85 c10 -7 7 -9 -12 -8
-14 1 -23 5 -20 10 6 9 15 9 32 -2z m-789 -45 c0 -2 -8 -10 -17 -17 -16 -13
-17 -12 -4 4 13 16 21 21 21 13z m867 -31 c0 -8 -4 -12 -9 -9 -5 3 -6 10 -3
15 9 13 12 11 12 -6z m-883 -17 c-3 -4 -11 -5 -19 -1 -21 7 -19 12 4 10 11 0
18 -5 15 -9z m943 -110 c-3 -7 -5 -2 -5 12 0 14 2 19 5 13 2 -7 2 -19 0 -25z
m-20 -20 c-3 -8 -6 -5 -6 6 -1 11 2 17 5 13 3 -3 4 -12 1 -19z m-988 -434 c4
3 8 -5 8 -17 2 -21 1 -22 -13 -3 -8 11 -14 25 -13 30 0 6 3 5 6 -2 2 -6 8 -10
12 -8z m-22 -36 c-3 -8 -6 -5 -6 6 -1 11 2 17 5 13 3 -3 4 -12 1 -19z m27 -24
c3 -8 2 -12 -4 -9 -6 3 -10 10 -10 16 0 14 7 11 14 -7z m992 -4 c0 -12 -4 -16
-9 -11 -5 5 -6 14 -3 20 10 15 12 14 12 -9z m-12 -28 c3 -5 -1 -9 -9 -9 -8 0
-12 4 -9 9 3 4 7 8 9 8 2 0 6 -4 9 -8z m-64 -6 c0 -2 -8 -10 -17 -17 -16 -13
-17 -12 -4 4 13 16 21 21 21 13z m-8 -68 c-8 -8 -9 -4 -5 13 4 13 8 18 11 10
2 -7 -1 -18 -6 -23z m-825 -13 c0 -8 -4 -12 -9 -9 -5 3 -6 10 -3 15 9 13 12
11 12 -6z m748 -3 c-3 -3 -11 0 -18 7 -9 10 -8 11 6 5 10 -3 15 -9 12 -12z
m29 -46 c-3 -8 -12 -17 -20 -20 -11 -4 -12 -2 -1 14 14 23 29 27 21 6z m-654
-39 c0 -2 -8 -3 -18 -3 -10 0 -19 6 -19 13 0 8 6 9 19 2 10 -5 18 -11 18 -12z
m580 -7 c-8 -5 -19 -10 -25 -10 -5 0 -3 5 5 10 8 5 20 10 25 10 6 0 3 -5 -5
-10z"/>
<path d="M4690 2853 c0 -5 -2 -223 -3 -485 l-2 -478 68 0 67 0 0 392 c0 327 2
390 13 378 8 -8 123 -185 257 -392 l244 -378 88 0 88 0 -2 483 -3 482 -67 3
-68 3 0 -388 c0 -327 -2 -385 -14 -373 -7 8 -122 183 -256 388 l-243 372 -83
0 c-46 0 -84 -3 -84 -7z"/>
<path d="M1530 798 c-115 -59 -118 -241 -5 -306 51 -29 150 -27 192 4 104 78
104 220 0 298 -42 31 -131 33 -187 4z m151 -34 c41 -21 73 -93 64 -141 -13
-73 -61 -113 -134 -113 -75 0 -128 70 -118 157 10 92 104 141 188 97z"/>
<path d="M5273 799 c-60 -30 -88 -78 -88 -154 0 -116 76 -182 199 -173 100 8
106 14 106 108 l0 80 -60 0 c-53 0 -60 -2 -60 -20 0 -16 7 -20 35 -20 l35 0 0
-49 c0 -55 -7 -61 -73 -61 -54 0 -86 17 -114 59 -44 64 -20 164 47 198 35 18
101 16 128 -3 18 -12 26 -13 37 -4 22 18 19 24 -20 43 -49 23 -121 22 -172 -4z"/>
<path d="M2090 645 l0 -165 25 0 24 0 3 133 3 132 85 -132 c80 -125 87 -133
118 -133 l32 0 0 165 0 165 -25 0 -24 0 -3 -130 -3 -131 -85 131 c-80 122 -87
130 -117 130 l-33 0 0 -165z"/>
<path d="M3040 645 l0 -165 110 0 c103 0 110 1 110 20 0 18 -7 20 -85 20 l-85
0 0 55 0 54 77 3 c65 3 78 6 81 21 3 15 -6 17 -77 17 l-81 0 0 50 0 50 79 0
c70 0 79 2 84 20 5 19 0 20 -104 20 l-109 0 0 -165z"/>
<path d="M3560 645 c0 -158 1 -165 20 -165 19 0 20 7 20 130 0 72 3 130 8 130
4 0 45 -59 91 -130 75 -117 86 -130 112 -130 l29 0 0 165 c0 158 -1 165 -20
165 -18 0 -20 -8 -22 -132 l-3 -133 -87 133 c-80 121 -90 132 -118 132 l-30 0
0 -165z"/>
<path d="M4160 645 l0 -165 110 0 c103 0 110 1 110 20 0 19 -7 20 -90 20 l-90
0 0 55 0 55 80 0 c73 0 80 2 80 20 0 18 -7 20 -80 20 l-80 0 0 50 0 50 85 0
c78 0 85 2 85 20 0 19 -7 20 -105 20 l-105 0 0 -165z"/>
<path d="M4670 645 l0 -165 25 0 c24 0 25 2 25 76 l0 75 27 -3 c23 -2 35 -16
68 -75 35 -64 43 -73 69 -73 28 0 28 0 12 25 -10 14 -30 48 -46 76 l-30 50 24
9 c32 12 56 48 56 85 -1 62 -41 85 -149 85 l-81 0 0 -165z m172 105 c22 -28
22 -32 0 -60 -13 -16 -29 -22 -67 -23 l-50 -2 -3 44 c-5 67 1 74 55 68 32 -3
53 -12 65 -27z"/>
<path d="M5756 783 c9 -16 37 -57 61 -93 41 -62 43 -68 43 -137 0 -71 1 -73
25 -73 24 0 25 2 25 74 0 73 0 74 60 165 l60 91 -28 0 c-23 0 -33 -11 -71 -76
l-44 -76 -43 69 c-24 37 -44 71 -44 76 0 4 -14 7 -31 7 l-31 0 18 -27z"/>
<path d="M2676 674 c-21 -20 -20 -37 2 -57 33 -30 72 -15 72 28 0 42 -44 59
-74 29z"/>
</g>
</svg>
