<?xml version="1.0" standalone="no"?>
<!DOCTYPE svg PUBLIC "-//W3C//DTD SVG 20010904//EN"
 "http://www.w3.org/TR/2001/REC-SVG-20010904/DTD/svg10.dtd">
<svg version="1.0" xmlns="http://www.w3.org/2000/svg"
 width="684.000000pt" height="385.000000pt" viewBox="0 0 684.000000 385.000000"
 preserveAspectRatio="xMidYMid meet">

<g transform="translate(0.000000,385.000000) scale(0.100000,-0.100000)"
fill="#000000" stroke="none">
<path d="M3356 2231 c-6 -10 -6 -499 0 -522 3 -12 16 -15 57 -13 66 2 60 1 91
25 20 16 24 24 16 39 -14 25 18 37 36 13 19 -25 17 -36 -6 -51 -11 -7 -20 -16
-20 -20 0 -8 179 -14 192 -6 5 3 -10 26 -32 51 -23 24 -51 65 -62 90 -41 94
-33 229 18 288 18 21 24 24 18 10 -3 -11 -13 -38 -21 -60 -18 -47 -12 -131 13
-190 37 -89 141 -185 201 -185 l33 0 0 270 0 270 -182 0 -183 0 30 -24 c29
-23 29 -24 12 -50 -15 -22 -25 -26 -67 -26 -43 0 -50 -3 -50 -20 0 -12 12 -26
30 -35 24 -13 30 -22 30 -50 0 -31 -3 -35 -41 -46 -23 -7 -43 -19 -46 -26 -8
-20 -23 -16 -23 7 0 14 11 22 40 31 34 10 40 16 40 40 0 18 -6 30 -19 34 -30
9 -44 32 -37 60 6 23 11 25 60 25 64 0 79 19 45 57 -20 20 -32 23 -95 23 -40
0 -75 -4 -78 -9z m158 -348 c6 -18 1 -23 -28 -33 -23 -7 -36 -18 -38 -32 -4
-31 -25 -33 -30 -3 -5 22 0 29 34 46 28 14 38 25 34 36 -3 8 -3 19 0 25 7 11
17 -2 28 -39z"/>
<path d="M1826 2189 c-52 -12 -86 -34 -119 -77 -58 -76 -63 -214 -10 -300 41
-66 90 -92 177 -92 104 0 175 50 192 138 l7 32 -52 0 c-44 0 -53 -3 -60 -23
-28 -73 -132 -73 -166 0 -13 26 -16 54 -13 105 3 64 7 73 36 99 46 41 85 39
128 -6 28 -30 39 -35 78 -35 40 0 46 3 46 21 0 40 -44 100 -90 124 -36 18
-109 25 -154 14z"/>
<path d="M2867 2186 c-154 -42 -209 -272 -96 -400 48 -54 89 -69 179 -64 77 4
126 33 153 90 30 65 28 73 -28 76 -47 3 -51 1 -63 -27 -18 -41 -76 -60 -118
-40 -84 40 -85 227 -1 267 43 21 95 7 115 -29 15 -26 22 -29 70 -29 52 0 52 0
46 28 -25 104 -139 161 -257 128z"/>
<path d="M2253 2182 l-153 -3 0 -44 0 -45 65 0 65 0 0 -180 0 -181 58 3 57 3
0 175 0 175 63 3 62 3 0 44 c0 29 -4 45 -12 46 -7 0 -22 1 -33 2 -11 1 -89 1
-172 -1z"/>
<path d="M2578 2182 l-48 -3 0 -225 0 -224 55 0 55 0 0 224 c0 124 -3 226 -7
228 -5 2 -29 2 -55 0z"/>
<path d="M4854 2177 c-14 -8 -15 -25 -10 -141 8 -153 12 -154 -84 24 l-65 120
-62 0 -63 0 0 -225 0 -225 56 0 57 0 -5 135 c-2 74 -2 133 1 130 2 -3 37 -63
77 -133 l71 -127 64 -3 65 -3 -1 227 0 226 -42 2 c-23 1 -50 -2 -59 -7z"/>
<path d="M5068 2182 c-17 -3 -18 -22 -18 -228 l0 -224 55 0 55 0 0 230 0 230
-37 -3 c-21 -1 -46 -3 -55 -5z"/>
<path d="M4110 2007 c0 -149 3 -177 19 -207 28 -54 82 -80 166 -80 84 0 138
26 166 80 16 30 19 58 19 207 l0 173 -54 0 -54 0 -4 -170 c-2 -122 -7 -173
-16 -182 -7 -7 -33 -13 -57 -13 -70 0 -74 12 -75 203 l0 162 -55 0 -55 0 0
-173z"/>
</g>
</svg>
